PathFileType	4	(X/Y/Z)	C:\Users\Basilio\Documents\Thesis Gigler\squatting_fais\c3dfiles\077\SLS_back_pre3\markers_experimental.trc
DataRate	CameraRate	NumFrames	NumMarkers	Units	OrigDataRate	OrigDataStartFrame	OrigNumFrames
200.000000	200.000000	4	60	mm	200.000000	204	1636
Frame#	Time	FHD			LBHD			RBHD			C7			T10			CLAV			LSHO			LUUPA			LMUPA			LDUPA			LLEP			LMEP			LRAD			LUL			LRFIN			RSHO			RUPA1			RMUPA			RDUPA			RLEP			RMEP			RRAD			RUL			RUFIN			LASI			RASI			USACR			LSACR			RSACR			LTHI1			LTHI2			LTHI3			LTHI4			LLFC			LMFC			LTIB1			LTIB2			LTIB3			LTIB4			LLMAL			LHEE			LMT1			LMT2			LMT5			RTHI			RTHI2			RTHI3			RTHI4			RLFC			RMFC			RTIB1			RTIB2			RTIB3			RTIB4			RLMAL			RMMAL			RHEE			RMT1			RMT2			RMT5			
		X1	Y1	Z1	X2	Y2	Z2	X3	Y3	Z3	X4	Y4	Z4	X5	Y5	Z5	X6	Y6	Z6	X7	Y7	Z7	X8	Y8	Z8	X9	Y9	Z9	X10	Y10	Z10	X11	Y11	Z11	X12	Y12	Z12	X13	Y13	Z13	X14	Y14	Z14	X15	Y15	Z15	X16	Y16	Z16	X17	Y17	Z17	X18	Y18	Z18	X19	Y19	Z19	X20	Y20	Z20	X21	Y21	Z21	X22	Y22	Z22	X23	Y23	Z23	X24	Y24	Z24	X25	Y25	Z25	X26	Y26	Z26	X27	Y27	Z27	X28	Y28	Z28	X29	Y29	Z29	X30	Y30	Z30	X31	Y31	Z31	X32	Y32	Z32	X33	Y33	Z33	X34	Y34	Z34	X35	Y35	Z35	X36	Y36	Z36	X37	Y37	Z37	X38	Y38	Z38	X39	Y39	Z39	X40	Y40	Z40	X41	Y41	Z41	X42	Y42	Z42	X43	Y43	Z43	X44	Y44	Z44	X45	Y45	Z45	X46	Y46	Z46	X47	Y47	Z47	X48	Y48	Z48	X49	Y49	Z49	X50	Y50	Z50	X51	Y51	Z51	X52	Y52	Z52	X53	Y53	Z53	X54	Y54	Z54	X55	Y55	Z55	X56	Y56	Z56	X57	Y57	Z57	X58	Y58	Z58	X59	Y59	Z59	X60	Y60	Z60	

205	1.02	-349.8295593261719	1868.564086914063	-902.9984130859377	-472.9603881835939	1736.179931640625	-962.3906250000002	-468.7582397460939	1733.97802734375	-815.9193115234377	-487.489959716797	1590.735473632813	-897.5197753906252	-454.2785034179689	1258.33203125	-879.9444580078127	-316.2958679199219	1572.580810546875	-901.7944335937502	-357.1805725097657	1605.267700195313	-1075.50634765625	-192.9166259765626	1553.301147460938	-1196.604858398438	-159.7731323242188	1582.534912109375	-1173.916015625	-125.2922592163086	1548.071655273438	-1210.286987304688	-60.00222396850587	1553.051879882813	-1213.935180664063	-49.648494720459	1486.618774414063	-1181.117065429688	240.3050231933594	1597.908325195313	-1125.276123046875	237.4190368652344	1597.711791992188	-1205.439086914063	328.6187438964844	1633.941528320313	-1139.600830078125	-335.6116943359376	1607.200073242188	-735.6592407226564	-170.8770904541016	1580.712768554688	-632.2533569335939	-145.8138732910157	1605.056884765625	-668.4119262695314	-101.2116622924805	1580.238525390625	-634.3889770507814	-36.16384887695313	1585.69287109375	-643.4760742187501	-30.33548164367676	1512.52099609375	-672.7199707031251	240.5171661376954	1615.97314453125	-753.6407470703126	255.7765197753907	1629.108520507813	-676.8708496093751	328.6303100585938	1654.954711914063	-760.9932250976564	-254.8540954589844	1070.22705078125	-1027.426879882813	-237.2199401855469	1093.09423828125	-739.0904541015626	-453.575653076172	1157.321166992188	-873.5479736328127	-459.7562255859376	1125.7275390625	-901.3693847656252	-457.7615661621095	1124.955200195313	-845.8118896484377	-339.6095275878907	860.898620605469	-1086.846435546875	-319.3038330078126	779.914001464844	-1088.987426757813	-270.2933959960938	776.4199218750002	-1083.244873046875	-353.1547546386719	730.2453002929689	-1075.222045898438	-338.8675231933594	582.5118408203126	-1059.392333984375	-326.1144104003907	548.3218383789064	-929.5090942382815	-295.7238159179688	359.9864196777344	-1018.673767089844	-328.4387817382813	322.1040344238282	-1093.39599609375	-295.4558715820313	317.8410339355469	-1060.80615234375	-293.2336730957032	236.3384857177735	-1039.145263671875	-346.5504760742188	116.8762588500977	-1091.675903320313	-398.1082763671876	82.3564910888672	-1043.5302734375	-188.7914276123047	57.05907440185548	-1021.815002441406	-182.767578125	58.50279235839845	-1064.208618164063	-315.2473754882813	124.2734832763672	-1008.031433105469	-362.4931945800782	761.2012939453126	-692.8523559570314	-334.1525268554688	702.0549316406251	-691.4735107421876	-300.7719421386719	698.8914184570314	-694.2431640625001	-370.9322814941407	630.6893920898439	-707.4151000976564	-375.8315734863282	559.7471923828126	-709.7229614257814	-341.4804992675782	542.4638061523439	-836.8649902343752	-319.0557861328126	425.9864196777345	-723.7384033203126	-377.5523376464844	341.9949951171876	-692.1948242187501	-333.7802124023438	341.0037841796876	-710.5460815429689	-323.6711730957032	296.9266967773438	-749.4078369140626	-376.8809814453126	114.3284683227539	-710.1149902343751	-345.2537231445313	123.3866958618164	-798.0364990234377	-433.9348144531251	83.72753906250001	-765.8084106445314	-210.2782897949219	61.03224563598634	-753.3765258789064	-214.9841003417969	61.05085754394533	-715.1829833984376	-234.4581909179688	43.76092910766602	-668.1032714843751	
206	1.025	-349.9930725097657	1868.49951171875	-903.1504516601565	-473.041961669922	1735.658813476563	-962.7319946289065	-468.9902954101564	1733.91748046875	-816.0000610351565	-487.6582641601564	1590.60498046875	-897.7527465820315	-454.0705871582032	1258.186279296875	-880.1108398437502	-315.4861450195313	1572.943969726563	-901.7576904296877	-357.2623291015626	1605.157836914063	-1075.664184570313	-192.6675262451172	1553.50732421875	-1196.539184570313	-159.8589782714844	1583.254028320313	-1173.97119140625	-125.3442001342774	1548.76220703125	-1210.127807617188	-59.70724105834962	1554.267700195313	-1213.597778320313	-49.59902572631837	1488.124145507813	-1181.016845703125	240.2290191650391	1600.075317382813	-1125.222045898438	237.2992858886719	1599.854370117188	-1205.142822265625	328.6461486816407	1636.24658203125	-1139.606689453125	-335.9219970703126	1607.2001953125	-735.9616699218751	-171.0416717529297	1581.304077148438	-632.5885620117189	-146.5242767333985	1605.590698242188	-668.4053344726564	-101.2509994506836	1581.447631835938	-634.7895507812501	-36.58664321899415	1587.344360351563	-643.5274047851564	-30.29153633117676	1514.071899414063	-673.3143920898439	240.8504028320313	1619.916259765625	-755.0689697265626	255.4868774414063	1631.78662109375	-677.6760864257814	328.5004882812501	1657.883911132813	-761.9500122070314	-254.3058624267579	1070.276123046875	-1027.512329101563	-236.9291534423829	1093.14990234375	-739.2192382812501	-453.4272766113282	1157.244384765625	-873.6567993164065	-459.4391479492189	1125.654663085938	-901.5035400390627	-457.5026855468751	1124.812133789063	-845.997985839844	-339.1581115722657	860.8479003906252	-1086.8955078125	-318.9042663574219	780.0242309570315	-1089.153442382813	-269.6323547363282	776.291198730469	-1083.23046875	-352.8661499023438	730.3336791992189	-1075.343627929688	-337.0744018554688	581.9147949218751	-1058.975219726563	-325.8837890625001	548.4040527343751	-929.559753417969	-295.5889282226563	359.9869384765626	-1018.725830078125	-328.2624206542969	321.9940490722657	-1093.423950195313	-295.1895141601563	318.3386230468751	-1060.74462890625	-293.5593566894532	236.5459747314454	-1039.388061523438	-346.5431823730469	116.89794921875	-1091.691040039063	-398.0838623046876	82.3594207763672	-1043.523315429688	-188.7740936279297	56.99991607666017	-1021.8017578125	-182.7342529296875	58.49845123291017	-1064.196533203125	-315.2701416015626	124.2528457641602	-1008.016967773438	-362.3322753906251	761.3583374023439	-692.2912597656251	-333.8966979980469	702.0940551757814	-691.5064697265626	-300.3639526367188	698.9782714843751	-694.2803344726564	-370.5779113769532	630.6945800781251	-707.5043945312501	-375.5855102539063	559.7137451171876	-709.8278808593751	-341.0967102050782	542.5437622070314	-836.9064941406252	-318.8204345703126	425.9063415527345	-723.7796630859376	-377.4279785156251	342.0018615722657	-692.2444458007814	-333.5989990234376	341.0458374023438	-710.6257324218751	-323.6884155273438	296.9856872558594	-749.5784912109376	-376.8613891601563	114.3814849853516	-710.1245117187501	-345.1512756347657	123.3525390625	-798.0391235351565	-433.9448547363282	83.79665374755861	-765.8105468750001	-210.2485656738282	61.07643127441408	-753.3554687500001	-214.9960021972657	60.94756317138673	-715.2074584960939	-234.4224243164063	43.81524276733399	-668.0880126953126	
207	1.03	-349.9058532714844	1868.31201171875	-903.244812011719	-473.5477600097657	1736.442749023438	-963.0302734375002	-469.0833129882814	1733.99072265625	-816.224304199219	-487.813446044922	1590.461791992188	-897.944519042969	-453.8888244628907	1258.035278320313	-880.2994384765627	-315.9570922851563	1573.1220703125	-901.9152832031252	-357.3494262695313	1605.001586914063	-1075.913818359375	-192.8828125000001	1553.85498046875	-1196.644409179688	-160.228744506836	1583.9892578125	-1174.255004882813	-125.3539733886719	1549.455078125	-1210.044311523438	-59.94811248779298	1555.3955078125	-1213.282836914063	-49.17238998413087	1489.091064453125	-1180.70166015625	240.1731109619141	1602.109252929688	-1125.26025390625	236.6193389892579	1602.343994140625	-1205.214599609375	328.5532226562501	1638.19873046875	-1139.679443359375	-336.1496887207032	1607.187744140625	-736.2303466796876	-171.1956024169922	1582.120971679688	-633.0250244140626	-146.7922973632813	1606.485961914063	-668.7807006835939	-101.6039581298828	1582.327758789063	-635.5183105468751	-36.86455154418946	1588.09521484375	-645.0288085937501	-30.31646156311036	1515.28466796875	-673.9504394531251	240.5700836181641	1622.151611328125	-755.8040771484376	254.628158569336	1633.438720703125	-679.4724121093751	328.0579833984376	1660.132080078125	-762.9089965820314	-253.7528686523438	1070.378051757813	-1027.594482421875	-236.6570739746094	1093.188598632813	-739.3442382812501	-453.1564025878907	1157.176147460938	-873.825622558594	-459.1080017089845	1125.57861328125	-901.6746215820315	-457.2187805175782	1124.719482421875	-846.1221313476565	-338.7733154296876	860.863464355469	-1087.111694335938	-318.5505065917969	779.9698486328127	-1089.213623046875	-269.3728637695313	776.315612792969	-1083.336547851563	-352.4032897949219	730.3453369140626	-1075.393798828125	-337.4682006835938	582.2996826171876	-1059.3349609375	-325.6435241699219	548.4459838867189	-929.6657714843752	-295.4310913085938	359.9844360351563	-1018.764099121094	-328.1279602050782	321.8946533203126	-1093.501220703125	-295.0061340332032	318.3713989257813	-1060.794311523438	-292.9248657226563	236.1442565917969	-1039.06201171875	-346.5349731445313	116.8884582519532	-1091.6845703125	-398.0834960937501	82.3549270629883	-1043.5283203125	-188.7664031982422	57.02967071533205	-1021.76904296875	-182.7434692382813	58.48007202148439	-1064.19140625	-315.2280883789063	124.2599258422852	-1008.023986816406	-361.9107360839844	761.2236328125001	-693.0080566406251	-333.6712341308594	702.0361328125001	-691.6275634765626	-300.0562133789063	699.0509033203126	-694.3478393554689	-370.2464904785157	630.7506103515626	-707.6011962890626	-375.2656250000001	559.7440795898439	-709.8777465820314	-340.8857421875001	542.5237426757814	-836.9913330078127	-318.6754760742188	425.8892822265626	-723.8604736328126	-377.2921447753907	342.0219116210938	-692.3375854492189	-333.4275817871094	341.0602416992188	-710.6512451171876	-323.5175476074219	296.9671936035157	-749.6077880859376	-376.8630065917969	114.4144439697266	-710.1498413085939	-345.1571350097657	123.3670120239258	-798.0547485351565	-433.9058837890626	83.73254394531251	-765.7697753906251	-210.2823638916016	61.03490829467775	-753.3704833984376	-215.0453491210938	60.99813079833986	-715.2047729492189	-234.4768066406251	43.73165893554688	-668.0853881835939	
208	1.035	-350.0454101562501	1868.299072265625	-903.491149902344	-473.5272827148439	1735.652709960938	-963.030456542969	-469.2473754882814	1734.06103515625	-816.2957153320315	-487.9333801269532	1590.241821289063	-898.1692504882815	-453.6818847656251	1257.892578125	-880.4577636718752	-317.5301818847657	1572.045166015625	-902.0358886718752	-357.4455261230469	1604.777709960938	-1076.166870117188	-192.6814270019532	1554.036743164063	-1196.569580078125	-161.340560913086	1584.856201171875	-1174.654663085938	-125.4068984985352	1550.052978515625	-1209.996337890625	-60.16519927978517	1556.657836914063	-1213.265380859375	-48.914363861084	1490.373291015625	-1180.384033203125	240.1092834472657	1603.8818359375	-1125.312866210938	236.7916870117188	1604.440673828125	-1205.259033203125	328.5472717285157	1640.824829101563	-1139.584838867188	-336.3697204589844	1607.195922851563	-736.4513549804689	-171.404037475586	1582.7255859375	-633.5386962890626	-147.1798858642578	1607.3212890625	-669.2708129882814	-101.6559371948242	1583.086303710938	-635.8343505859376	-37.20243835449219	1589.611694335938	-644.9207153320314	-30.22912788391114	1516.5654296875	-674.5194091796876	240.307357788086	1624.388916015625	-756.5206909179689	254.3392181396485	1635.683227539063	-680.0952148437501	327.8237304687501	1662.358642578125	-763.8720092773439	-253.3153533935547	1070.521850585938	-1027.699951171875	-236.4063262939454	1093.215698242188	-739.4948120117189	-452.922821044922	1157.099731445313	-873.9873657226565	-458.8013305664064	1125.522216796875	-901.8435668945315	-456.8875122070314	1124.667114257813	-846.257019042969	-338.5025024414063	860.8889160156252	-1087.249267578125	-318.2189025878907	779.8485107421877	-1089.301879882813	-268.9348144531251	776.3630371093752	-1083.361694335938	-352.0502929687501	730.3724975585939	-1075.530029296875	-337.1666259765626	582.3242797851564	-1059.42529296875	-325.4088134765626	548.4945678710939	-929.7131347656252	-295.2879638671876	359.9961242675782	-1018.808837890625	-327.9328918457032	321.8432922363282	-1093.509765625	-294.7463073730469	318.2955322265626	-1060.813598632813	-293.3990783691407	236.4959259033204	-1039.45068359375	-346.5517272949219	116.8109207153321	-1091.6591796875	-398.1070556640626	82.36300659179689	-1043.51123046875	-188.7573547363282	57.00819778442384	-1021.7880859375	-182.7296905517578	58.38972091674806	-1064.204467773438	-315.2072753906251	124.2764358520508	-1008.052124023438	-361.6343994140626	761.2750854492189	-693.0780029296876	-333.4389648437501	702.0205688476564	-691.6868896484376	-299.7717285156251	699.1580810546876	-694.4333496093751	-369.8991394042969	630.8769531250001	-707.7035522460939	-374.9709777832032	559.7811889648439	-709.9953002929689	-340.7698974609376	542.3486938476564	-837.0251464843752	-318.4036254882813	425.8736267089845	-723.8715820312501	-377.1836242675782	342.0093383789063	-692.4226074218751	-333.2583923339844	340.9753417968751	-710.6735229492189	-323.2931518554688	296.8749084472657	-749.6558837890626	-376.8259887695313	114.4248428344727	-710.1934204101564	-345.1166076660157	123.3676528930664	-798.0737304687502	-433.9419860839845	83.78216552734376	-765.8227539062501	-210.2650756835938	61.04253387451173	-753.3629150390626	-215.0243377685547	60.98363494873048	-715.2296142578126	-234.3962402343751	43.75975036621094	-668.0889282226564	
